<svg version="1.1" xmlns="http://www.w3.org/2000/svg" xmlns:xlink="http://www.w3.org/1999/xlink" width="313.61691" height="197.68428" viewBox="0,0,313.61691,197.68428"><g transform="translate(-49.26335,-78.06572)"><g data-paper-data="{&quot;isPaintingLayer&quot;:true}" fill-rule="nonzero" stroke-linejoin="miter" stroke-miterlimit="10" stroke-dasharray="" stroke-dashoffset="0" style="mix-blend-mode: normal"><path d="M77.80389,175.88332l20.59919,-20.47915l61.34451,65.60121l-20.59919,20.47915z" fill="#00c7c7" stroke="#000000" stroke-width="5" stroke-linecap="butt"/><path d="M90.86659,187.22227l11.97601,-10.44716" fill="none" stroke="#000000" stroke-width="3.5" stroke-linecap="round"/><path d="M123.2273,198.17903l-11.97601,10.44716" fill="none" stroke="#000000" stroke-width="3.5" stroke-linecap="round"/><path d="M149.47258,232.35972l12.23082,11.21158" fill="none" stroke="#000000" stroke-width="5" stroke-linecap="round"/><path d="M66.88854,154.40213l8.19955,-8.3758l15.29493,14.97309l-8.19955,8.37579z" fill="#deffff" stroke="#000000" stroke-width="5" stroke-linecap="butt"/><path d="M57.64361,160.11443l-4.84734,-5.23512l25.42773,-23.54419l4.84734,5.23512z" fill="#deffff" stroke="#000000" stroke-width="5" stroke-linecap="butt"/><path d="M260.74944,126.93736c0,0 -6.76754,20.14793 -25.01986,20.67606c-6.06353,0.17545 -20.00187,1.64951 -26.45078,1.60675c-11.1472,-0.07391 -19.40187,-3.97254 -24.64193,-4.01149c-8.82074,-0.06558 -18.48981,-16.82147 -18.48981,-16.82147c0,0 -1.33587,-12.82991 -1.63928,-19.20142c-0.30067,-6.31411 -0.17303,-18.857 -0.17303,-18.857c0,0 9.66908,7.69436 18.48981,7.75994c5.24006,0.03896 16.39443,2.12528 27.54163,2.19919c6.4489,0.04276 17.85002,-0.34392 23.91355,-0.51937c18.25232,-0.52813 27.19463,-9.80222 27.19463,-9.80222c0,0 0.89039,13.66439 0.45359,19.96681c-0.40681,5.86962 -1.17852,17.00424 -1.17852,17.00424z" fill="#7ec7c4" stroke="#7ec7c4" stroke-width="5" stroke-linecap="round"/><path d="M239.00177,109.90168c0,0 -18.85579,5.0968 -27.94226,5.28224c-8.65294,0.1766 -25.33954,-4.19486 -25.33954,-4.19486" fill="none" stroke="#379898" stroke-width="5.5" stroke-linecap="round"/><path d="M249.0333,121.13798c0,0 -25.0256,5.95829 -36.96256,6.20698c-11.21556,0.23366 -32.63,-4.75713 -32.63,-4.75713" fill="none" stroke="#379898" stroke-width="5.5" stroke-linecap="round"/><path d="M236.827,133.82413c0,0 -17.37905,4.34954 -25.73475,4.34954c-7.93311,0 -23.19752,-4.34954 -23.19752,-4.34954" fill="none" stroke="#379898" stroke-width="5.5" stroke-linecap="round"/><path d="M163.00572,84.41312c0,0 12.46229,7.66309 22.71123,7.70095c4.97451,0.01838 14.83669,2.38195 23.93042,1.77331c9.39952,-0.62911 21.6222,0.26127 30.36661,-1.50898c13.56792,-2.74672 21.82285,-8.32774 21.82285,-8.32774v4.712c0,0 -8.28607,6.13882 -17.72257,8.48931c-11.37743,2.83393 -24.92053,1.96968 -34.10931,1.95839c-6.85935,-0.00843 -20.42695,0.56681 -29.11177,-1.66425c-11.47785,-2.94855 -17.40417,-8.90427 -17.40417,-8.90427l-0.48328,-4.22871z" fill="#ffffff" stroke="#379898" stroke-width="2" stroke-linecap="round"/><path d="M249.51315,92.38727c0,0 -7.51474,3.0948 -16.73656,4.16743c-6.75799,0.78605 -14.60054,0.73447 -20.23183,0.70778c-5.17558,-0.02453 -13.55567,-0.43102 -21.01961,-1.30046c-9.91548,-1.15501 -18.49133,-3.9372 -18.49133,-3.9372" fill="none" stroke="#379898" stroke-width="2" stroke-linecap="round"/><path d="M165.05967,128.6334c0,0 -11.14701,-13.80143 -15.7356,-18.32883c-1.96142,-1.93527 -2.02499,-12.11791 -2.02499,-12.11791c0,0 -1.33005,-4.98681 -0.2774,-10.58523c0.88754,-4.72028 3.37275,-5.26814 4.17424,-7.2857c0.72594,-1.82737 5.88961,0.11032 5.88961,0.11032l6.16185,4.712z" fill="none" stroke="#659d9d" stroke-width="4.5" stroke-linecap="round"/><path d="M162.8849,85.50051l2.17477,43.85781" fill="none" stroke="#379898" stroke-width="2" stroke-linecap="round"/><path d="M261.87899,85.13805l6.16184,-4.712c0,0 5.16368,-1.93769 5.88961,-0.11032c0.80149,2.01756 3.2867,2.56542 4.17424,7.28569c1.05266,5.59842 -0.2774,10.58523 -0.2774,10.58523c0,0 -0.06358,10.18264 -2.02499,12.11791c-4.58859,4.52741 -15.7356,18.32883 -15.7356,18.32883z" data-paper-data="{&quot;index&quot;:null}" fill="none" stroke="#659d9d" stroke-width="4.5" stroke-linecap="round"/><path d="M326.75,190.41667c0,-0.41421 -0.11193,-0.75 -0.25,-0.75c-0.13807,0 -0.25,0.33579 -0.25,0.75c0,0.41421 0.11193,0.75 0.25,0.75c0.13807,0 0.25,-0.33579 0.25,-0.75z" fill="#007fcf" stroke="none" stroke-width="0" stroke-linecap="butt"/><path d="M305.25409,274.5v-72.48364h56.37617v72.48364z" fill="#00aeff" stroke="#000000" stroke-width="2.5" stroke-linecap="butt"/><path d="M328.81873,200.52492v-43.25156h11.93146v43.25156z" fill="#cecece" stroke="#000000" stroke-width="2.5" stroke-linecap="butt"/><path d="M315.9924,167.41511v-20.58178h37.58411v20.58178z" fill="#cecece" stroke="#000000" stroke-width="2.5" stroke-linecap="butt"/><path d="M284.07574,160.55452c0,0 -2.24621,-2.27291 -2.19145,-3.86072c0.03989,-1.15693 2.48974,-4.78959 2.48974,-4.78959h31.02181v6.86059c0,0 -13.24482,-1.01223 -21.29071,-1.73899c-2.34757,-0.21205 -4.55083,0.54585 -5.55509,0.54585c-1.3685,0 -4.4743,2.98286 -4.4743,2.98286z" fill="#cecece" stroke="#000000" stroke-width="2.5" stroke-linecap="butt"/><path d="M313.30782,200.82321v-12.82632h41.76012v12.82632z" fill="#cecece" stroke="#000000" stroke-width="2.5" stroke-linecap="butt"/><path d="M319.34813,213.35125c0,1.48265 -1.30209,2.68458 -2.90829,2.68458c-1.60621,0 -2.90829,-1.20193 -2.90829,-2.68458c0,-1.48265 1.30209,-2.68458 2.90829,-2.68458c1.60621,0 2.90829,1.20193 2.90829,2.68458z" fill="#007fcf" stroke="none" stroke-width="0" stroke-linecap="butt"/><path d="M338.58761,237.95989c0,0.74133 -1.60257,1.34229 -3.57944,1.34229c-1.97687,0 -3.57944,-0.60096 -3.57944,-1.34229c0,-0.74133 1.60257,-1.34229 3.57944,-1.34229c1.97687,0 3.57944,0.60096 3.57944,1.34229z" fill="#007fcf" stroke="none" stroke-width="0" stroke-linecap="butt"/><path d="M343.50934,220.73384c0,2.10042 -1.60257,3.80315 -3.57944,3.80315c-1.97687,0 -3.57944,-1.70273 -3.57944,-3.80315c0,-2.10042 1.60257,-3.80315 3.57944,-3.80315c1.97687,0 3.57944,1.70273 3.57944,3.80315z" fill="#007fcf" stroke="none" stroke-width="0" stroke-linecap="butt"/><path d="M325.61215,252.94879c0,2.10042 -1.80289,3.80315 -4.02687,3.80315c-2.22398,0 -4.02687,-1.70273 -4.02687,-3.80315c0,-2.10042 1.80289,-3.80315 4.02687,-3.80315c2.22398,0 4.02687,1.70273 4.02687,3.80315z" fill="#007fcf" stroke="none" stroke-width="0" stroke-linecap="butt"/><path d="M353.80023,252.27765c0,1.48265 -1.70273,2.68458 -3.80315,2.68458c-2.10042,0 -3.80315,-1.20193 -3.80315,-2.68458c0,-1.48265 1.70273,-2.68458 3.80315,-2.68458c2.10042,0 3.80315,1.20193 3.80315,2.68458z" fill="#007fcf" stroke="none" stroke-width="0" stroke-linecap="butt"/><path d="M321.13785,230.12987c0,2.10042 -0.90145,3.80315 -2.01343,3.80315c-1.11199,0 -2.01343,-1.70273 -2.01343,-3.80315c0,-2.10042 0.90145,-3.80315 2.01343,-3.80315c1.11199,0 2.01343,1.70273 2.01343,3.80315z" fill="#007fcf" stroke="none" stroke-width="0" stroke-linecap="butt"/></g></g></svg>