<svg version="1.1" xmlns="http://www.w3.org/2000/svg" xmlns:xlink="http://www.w3.org/1999/xlink" width="274.77312" height="148.43794" viewBox="0,0,274.77312,148.43794"><g transform="translate(-34.20212,-67.28121)"><g data-paper-data="{&quot;isPaintingLayer&quot;:true}" fill-rule="nonzero" stroke-linecap="round" stroke-linejoin="miter" stroke-miterlimit="10" stroke-dasharray="" stroke-dashoffset="0" style="mix-blend-mode: normal"><path d="M270.9414,167.27545c0,0 -13.95362,41.54195 -51.58712,42.63087c-12.50207,0.36175 -41.24081,3.40104 -54.53748,3.31288c-22.98382,-0.15239 -40.00371,-8.19077 -50.80791,-8.27109c-18.18701,-0.13522 -38.12317,-34.6833 -38.12317,-34.6833c0,0 -2.75436,-26.45332 -3.37994,-39.5904c-0.61994,-13.01873 -0.35676,-38.88027 -0.35676,-38.88027c0,0 19.93616,15.86458 38.12317,15.9998c10.80419,0.08032 33.8028,4.382 56.78662,4.53439c13.29666,0.08816 36.80403,-0.70911 49.3061,-1.07086c37.6335,-1.08892 56.07116,-20.21067 56.07116,-20.21067c0,0 1.83585,28.17387 0.93523,41.16851c-0.83877,12.10226 -2.42991,35.06015 -2.42991,35.06015z" fill="#7ec7c4" stroke="#7ec7c4" stroke-width="5"/><path d="M116.24208,134.3925c0,0 34.40523,9.01327 52.24627,8.64916c18.7349,-0.38235 57.61267,-10.89118 57.61267,-10.89118" fill="none" stroke="#379898" stroke-width="5.5"/><path d="M103.29528,158.30737c0,0 44.1533,10.29024 67.27808,9.80847c24.61218,-0.51275 76.21115,-12.79783 76.21115,-12.79783" fill="none" stroke="#379898" stroke-width="5.5"/><path d="M120.72612,181.47491c0,0 31.47287,8.96808 47.82974,8.96808c17.22818,0 53.06112,-8.96808 53.06112,-8.96808" fill="none" stroke="#379898" stroke-width="5.5"/><path d="M69.40879,79.59697l0.99645,8.71896c0,0 12.21917,12.27979 35.88474,18.35926c17.90677,4.60009 45.88108,3.41405 60.02402,3.43142c18.94587,0.02328 46.86967,1.80523 70.32819,-4.03791c19.45662,-4.84633 36.54123,-17.50365 36.54123,-17.50365v-9.71542c0,0 -17.0204,11.5072 -44.99538,17.17053c-18.02963,3.64997 -43.23096,1.81414 -62.61132,3.11127c-18.74988,1.25493 -39.08417,-3.61838 -49.34085,-3.65628c-21.13175,-0.07807 -46.82709,-15.87819 -46.82709,-15.87819z" fill="#ffffff" stroke="#379898" stroke-width="2"/><path d="M90.08519,95.29111c0,0 17.6821,5.73645 38.1263,8.1179c15.3895,1.79265 32.66798,2.63078 43.33922,2.68136c11.61086,0.05503 27.781,0.16138 41.71494,-1.45933c19.01398,-2.21159 34.50823,-8.5926 34.50823,-8.5926" fill="none" stroke="#379898" stroke-width="2"/><path d="M69.90701,81.09165l-12.70478,-9.71542c0,0 -10.6467,-3.99523 -12.14348,-0.22747c-1.65256,4.15989 -6.77667,5.28949 -8.60664,15.02199c-2.17041,11.54308 0.57195,21.82513 0.57195,21.82513c0,0 0.13108,20.99506 4.17523,24.98529c9.46097,9.33482 32.44441,37.79125 32.44441,37.79125z" fill="none" stroke="#659d9d" stroke-width="4.5"/><path d="M69.15967,81.83899l4.48404,90.42811" fill="none" stroke="#379898" stroke-width="2"/><path d="M273.27034,81.09165l12.70478,-9.71542c0,0 10.6467,-3.99523 12.14348,-0.22747c1.65256,4.15989 6.77667,5.28949 8.60664,15.02198c2.17041,11.54308 -0.57195,21.82513 -0.57195,21.82513c0,0 -0.13108,20.99506 -4.17523,24.98529c-9.46097,9.33482 -32.44441,37.79125 -32.44441,37.79125z" data-paper-data="{&quot;index&quot;:null}" fill="none" stroke="#659d9d" stroke-width="4.5"/></g></g></svg>