<svg version="1.1" xmlns="http://www.w3.org/2000/svg" xmlns:xlink="http://www.w3.org/1999/xlink" width="388.43896" height="268.5855" viewBox="0,0,388.43896,268.5855"><defs><radialGradient cx="196.5" cy="66" r="60" gradientUnits="userSpaceOnUse" id="color-1"><stop offset="0" stop-color="#0aa00e"/><stop offset="1" stop-color="#40ff10"/></radialGradient><radialGradient cx="222.5" cy="54" r="60" gradientUnits="userSpaceOnUse" id="color-2"><stop offset="0" stop-color="#4e0aa1"/><stop offset="1" stop-color="#ff910f"/></radialGradient><radialGradient cx="237.5" cy="190" r="60" gradientUnits="userSpaceOnUse" id="color-3"><stop offset="0" stop-color="#0aa00e"/><stop offset="1" stop-color="#40ff10"/></radialGradient><radialGradient cx="224.5" cy="155" r="60" gradientUnits="userSpaceOnUse" id="color-4"><stop offset="0" stop-color="#4e0aa1"/><stop offset="1" stop-color="#ff910f"/></radialGradient><radialGradient cx="63.5" cy="244" r="36" gradientUnits="userSpaceOnUse" id="color-5"><stop offset="0" stop-color="#9966ff"/><stop offset="1" stop-color="#c3ffff"/></radialGradient><radialGradient cx="87.5" cy="224" r="36" gradientUnits="userSpaceOnUse" id="color-6"><stop offset="0" stop-color="#d4d4d4"/><stop offset="1" stop-color="#414141"/></radialGradient><radialGradient cx="111.5" cy="239" r="40.5" gradientUnits="userSpaceOnUse" id="color-7"><stop offset="0" stop-color="#84ffa6"/><stop offset="1" stop-color="#ffef66"/></radialGradient><radialGradient cx="128.5" cy="216" r="40.5" gradientUnits="userSpaceOnUse" id="color-8"><stop offset="0" stop-color="#d4d4d4"/><stop offset="1" stop-color="#414141"/></radialGradient><radialGradient cx="146.5" cy="248" r="35" gradientUnits="userSpaceOnUse" id="color-9"><stop offset="0" stop-color="#991c1c"/><stop offset="1" stop-color="#492e61"/></radialGradient><radialGradient cx="145.5" cy="221" r="35" gradientUnits="userSpaceOnUse" id="color-10"><stop offset="0" stop-color="#d4d4d4"/><stop offset="1" stop-color="#414141"/></radialGradient><radialGradient cx="145.5" cy="241" r="5" gradientUnits="userSpaceOnUse" id="color-11"><stop offset="0" stop-color="#d4d4d4"/><stop offset="1" stop-color="#414141"/></radialGradient><radialGradient cx="78.5" cy="233" r="7" gradientUnits="userSpaceOnUse" id="color-12"><stop offset="0" stop-color="#d4d4d4"/><stop offset="1" stop-color="#414141"/></radialGradient><radialGradient cx="187.5" cy="248" r="42" gradientUnits="userSpaceOnUse" id="color-13"><stop offset="0" stop-color="#eb7d2a"/><stop offset="1" stop-color="#d1d1d1"/></radialGradient><radialGradient cx="188.5" cy="231" r="42" gradientUnits="userSpaceOnUse" id="color-14"><stop offset="0" stop-color="#d4d4d4"/><stop offset="1" stop-color="#414141"/></radialGradient><radialGradient cx="246.5" cy="278" r="41.5" gradientUnits="userSpaceOnUse" id="color-15"><stop offset="0" stop-color="#73ff00"/><stop offset="1" stop-color="#ff6666"/></radialGradient><radialGradient cx="244.5" cy="227" r="41.5" gradientUnits="userSpaceOnUse" id="color-16"><stop offset="0" stop-color="#d4d4d4"/><stop offset="1" stop-color="#414141"/></radialGradient><radialGradient cx="243.5" cy="263" r="4" gradientUnits="userSpaceOnUse" id="color-17"><stop offset="0" stop-color="#d4d4d4"/><stop offset="1" stop-color="#414141"/></radialGradient><radialGradient cx="274.5" cy="277" r="45.5" gradientUnits="userSpaceOnUse" id="color-18"><stop offset="0" stop-color="#7300ff"/><stop offset="1" stop-color="#ffea00"/></radialGradient><radialGradient cx="268.5" cy="227" r="45.5" gradientUnits="userSpaceOnUse" id="color-19"><stop offset="0" stop-color="#d4d4d4"/><stop offset="1" stop-color="#414141"/></radialGradient><radialGradient cx="329.5" cy="262" r="45.5" gradientUnits="userSpaceOnUse" id="color-20"><stop offset="0" stop-color="#00ff08"/><stop offset="1" stop-color="#0053ff"/></radialGradient><radialGradient cx="321.5" cy="220" r="45.5" gradientUnits="userSpaceOnUse" id="color-21"><stop offset="0" stop-color="#d4d4d4"/><stop offset="1" stop-color="#414141"/></radialGradient><radialGradient cx="318.5" cy="244" r="7" gradientUnits="userSpaceOnUse" id="color-22"><stop offset="0" stop-color="#d4d4d4"/><stop offset="1" stop-color="#414141"/></radialGradient><radialGradient cx="356.5" cy="224" r="38.5" gradientUnits="userSpaceOnUse" id="color-23"><stop offset="0" stop-color="#ff0000"/><stop offset="1" stop-color="#626875"/></radialGradient><radialGradient cx="339.5" cy="214" r="38.5" gradientUnits="userSpaceOnUse" id="color-24"><stop offset="0" stop-color="#d4d4d4"/><stop offset="1" stop-color="#414141"/></radialGradient><radialGradient cx="390.5" cy="241" r="46.5" gradientUnits="userSpaceOnUse" id="color-25"><stop offset="0" stop-color="#ff8800"/><stop offset="1" stop-color="#0053ff"/></radialGradient><radialGradient cx="386.5" cy="211" r="46.5" gradientUnits="userSpaceOnUse" id="color-26"><stop offset="0" stop-color="#d4d4d4"/><stop offset="1" stop-color="#414141"/></radialGradient></defs><g transform="translate(-32.26393,-47.72028)"><g data-paper-data="{&quot;isPaintingLayer&quot;:true}" fill-rule="nonzero" stroke-width="4" stroke-linecap="round" stroke-linejoin="miter" stroke-miterlimit="10" stroke-dasharray="" stroke-dashoffset="0" style="mix-blend-mode: normal"><path d="M254.5,127l3,-33l-48,-19l-20,12v22h18l-24,26l-29,-27l22,-1l-1,-36l41,-21l53,31l5,48z" fill="url(#color-1)" stroke="url(#color-2)"/><path d="M175.5,135l-3,33l48,19l20,-12v-22h-18l24,-26l29,27l-22,1l1,36l-41,21l-53,-31l-5,-48z" data-paper-data="{&quot;index&quot;:null}" fill="url(#color-3)" stroke="url(#color-4)"/><path d="M38.5,284l17,-57l27,-9l18,21l-20,18l-11,-1l-19,34h-15z" fill="url(#color-5)" stroke="url(#color-6)"/><path d="M112.5,221l17,-8l-22,65l27,-2l-10,18l-38,-4z" fill="url(#color-7)" stroke="url(#color-8)"/><path d="M119.5,245l28,-24l28,67l-21,3l-13,-36l-24,20h-9z" fill="url(#color-9)" stroke="url(#color-10)"/><path d="M134.5,241l10,1" fill="none" stroke="url(#color-11)"/><path d="M73.5,227l8,14" fill="none" stroke="url(#color-12)"/><path d="M160.5,227l8,-8l13,26l17,-25l7,20l-22,23l8,40l-19,-1v-15v-22z" fill="url(#color-13)" stroke="url(#color-14)"/><path d="M227.5,295l15,-74l22,75l-13,2l-4,-13h-6l-6,19z" fill="url(#color-15)" stroke="url(#color-16)"/><path d="M244.5,270l-1,-8" fill="none" stroke="url(#color-17)"/><path d="M249.5,244l19,-21l28,24l-1,14h-7l-11,-11l-10,7l16,27l1,11l19,-1l2,-7l-14,-5l1,-7l26,7v11l-8,1v13l-33,7z" fill="url(#color-18)" stroke="url(#color-19)"/><path d="M305.5,274l17,-61l31,86l-11,5l-11,-34l-12,-3l-4,13z" fill="url(#color-20)" stroke="url(#color-21)"/><path d="M319.5,241l6,14" fill="none" stroke="url(#color-22)"/><path d="M327.5,214h46v16l-19,-2l9,51h20v12l-30,-1l-6,-2l-2,-14h8l-10,-42l-14,-3z" fill="url(#color-23)" stroke="url(#color-24)"/><path d="M383.5,208l-4,68h7l5,-26l20,44h7l-9,-93h-7l1,45z" fill="url(#color-25)" stroke="url(#color-26)"/></g></g></svg>