<svg version="1.1" xmlns="http://www.w3.org/2000/svg" xmlns:xlink="http://www.w3.org/1999/xlink" width="386.6861" height="298.17683" viewBox="0,0,386.6861,298.17683"><g transform="translate(-15.13245,-8.48581)"><g data-paper-data="{&quot;isPaintingLayer&quot;:true}" fill-rule="nonzero" stroke-linejoin="miter" stroke-miterlimit="10" stroke-dasharray="" stroke-dashoffset="0" style="mix-blend-mode: normal"><path d="M143.5,149.5c0,13.10421 -11.23359,23.72727 -25.09091,23.72727c-13.85733,0 -25.09091,-10.62307 -25.09091,-23.72727c0,-13.10421 11.23359,-23.72728 25.09091,-23.72728c13.85732,0 25.09091,10.62307 25.09091,23.72728z" fill="#50c859" stroke="none" stroke-width="0" stroke-linecap="butt"/><path d="M84.59091,145.95457z" fill="#50c859" stroke="none" stroke-width="0" stroke-linecap="butt"/><path d="M107.5,135.59093l-11.45454,-22.90909" fill="none" stroke="#50c859" stroke-width="12.5" stroke-linecap="round"/><path d="M126.59091,110.50002l-6,17.45454" fill="none" stroke="#50c859" stroke-width="12.5" stroke-linecap="round"/><path d="M148.95455,131.2273l-12.54546,6.54545" fill="none" stroke="#50c859" stroke-width="12.5" stroke-linecap="round"/><path d="M138.04546,162.3182l17.45454,9.81819" fill="none" stroke="#50c859" stroke-width="12.5" stroke-linecap="round"/><path d="M116.22727,167.77274l2.18182,18.54546" fill="none" stroke="#50c859" stroke-width="12.5" stroke-linecap="round"/><path d="M94.40909,161.77274l-10.90909,10.36364" fill="none" stroke="#50c859" stroke-width="12.5" stroke-linecap="round"/><path d="M77.50001,137.77274l28.36363,10.36364" fill="none" stroke="#50c859" stroke-width="12.5" stroke-linecap="round"/><path d="M120.86364,136.8182c0,3.38902 -2.50314,6.13636 -5.59091,6.13636c-3.08777,0 -5.5909,-2.74734 -5.5909,-6.13636c0,-3.38902 2.50313,-6.13636 5.5909,-6.13636c3.08777,0 5.59091,2.74734 5.59091,6.13636z" fill="#249000" stroke="none" stroke-width="0" stroke-linecap="butt"/><path d="M138.31818,157.13637c0,2.5606 -1.6484,4.63636 -3.68181,4.63636c-2.03341,0 -3.68182,-2.07576 -3.68182,-4.63636c0,-2.5606 1.64841,-4.63637 3.68182,-4.63637c2.03341,0 3.68182,2.07577 3.68182,4.63637z" fill="#249000" stroke="none" stroke-width="0" stroke-linecap="butt"/><path d="M117.04546,158.2273c0,3.46433 -2.74734,6.27273 -6.13636,6.27273c-3.38902,0 -6.13637,-2.8084 -6.13637,-6.27273c0,-3.46433 2.74735,-6.27273 6.13637,-6.27273c3.38902,0 6.13636,2.8084 6.13636,6.27273z" fill="#249000" stroke="none" stroke-width="0" stroke-linecap="butt"/><path d="" data-paper-data="{&quot;origPos&quot;:null}" fill="#50c859" stroke="none" stroke-width="0" stroke-linecap="butt"/><path d="" data-paper-data="{&quot;origPos&quot;:null}" fill="#249000" stroke="none" stroke-width="0" stroke-linecap="butt"/><path d="" data-paper-data="{&quot;origPos&quot;:null}" fill="#249000" stroke="none" stroke-width="0" stroke-linecap="butt"/><path d="" data-paper-data="{&quot;origPos&quot;:null}" fill="#249000" stroke="none" stroke-width="0" stroke-linecap="butt"/><path d="M27,132.77664l23.5,-19.5" fill="none" stroke="#50c859" stroke-width="12.5" stroke-linecap="round"/><path d="M57.5,186.27664l-36,-17l1,-34" fill="none" stroke="#50c859" stroke-width="12.5" stroke-linecap="round"/><path d="M56,113.77665l8,5" fill="none" stroke="#50c859" stroke-width="12.5" stroke-linecap="round"/><path d="M60.5,185.77664l8.5,-10.5" fill="none" stroke="#50c859" stroke-width="12.5" stroke-linecap="round"/><path d="M197,104.77665l-15.5,69l-28,-65.5" fill="none" stroke="#50c859" stroke-width="12.5" stroke-linecap="round"/><path d="M211.5,113.27665l35.5,-14.5" fill="none" stroke="#50c859" stroke-width="12.5" stroke-linecap="round"/><path d="M233,109.77665v56.5" fill="none" stroke="#50c859" stroke-width="12.5" stroke-linecap="round"/><path d="M216,166.77664l39.5,4" fill="none" stroke="#50c859" stroke-width="12.5" stroke-linecap="round"/><path d="M115,212.77664l40.5,15l-0.5,33.5l-16,17" fill="none" stroke="#50c859" stroke-width="12.5" stroke-linecap="round"/><path d="M136,274.77664l-28,-11.5l6.5,-44.5" fill="none" stroke="#50c859" stroke-width="12.5" stroke-linecap="round"/><path d="M173.5,231.77664l2.5,46" fill="none" stroke="#50c859" stroke-width="12.5" stroke-linecap="round"/><path d="M175,224.77664l39.5,47" fill="none" stroke="#50c859" stroke-width="12.5" stroke-linecap="round"/><path d="M180.5,257.27664l18,-1" fill="none" stroke="#50c859" stroke-width="12.5" stroke-linecap="round"/><path d="M272.5,242.77664l-49.5,9l-8.5,-21l25.5,-8" fill="none" stroke="#50c859" stroke-width="12.5" stroke-linecap="round"/><path d="M270,245.77664l-9.5,26.5l-12.5,1.5l-11.5,0.5" fill="none" stroke="#50c859" stroke-width="12.5" stroke-linecap="round"/><path d="M274.5,214.27664l10.5,-2l3.5,64.5" fill="none" stroke="#50c859" stroke-width="12.5" stroke-linecap="round"/><path d="M313,212.27664l5,70.5" fill="none" stroke="#50c859" stroke-width="12.5" stroke-linecap="round"/><path d="M291,237.77664h19.5" fill="none" stroke="#50c859" stroke-width="12.5" stroke-linecap="round"/><path d="M337.07507,126.88064c0,15.37193 -6.19339,27.83334 -13.83333,27.83334c-7.63994,0 -13.83333,-12.46141 -13.83333,-27.83334c0,-15.37192 6.19339,-27.83333 13.83333,-27.83333c7.63994,0 13.83333,12.4614 13.83333,27.83333z" fill="#f1f1f1" stroke="#000000" stroke-width="1.5" stroke-linecap="butt"/><path d="M335.17319,213.3241c-0.43926,-0.40003 -0.86912,-0.8622 -1.28836,-1.38299c0.09202,0.06546 0.17851,0.12707 0.25868,0.18438c0,0 0.39945,0.28532 1.01844,0.51613c0.00374,0.22857 0.0075,0.45608 0.01124,0.68249z" fill="#000000" stroke="none" stroke-width="0" stroke-linecap="butt"/><path d="M274.42221,99.44979c-0.01852,0.2937 -0.03354,0.58828 -0.04519,0.88336c-0.26097,0.002 -0.51599,0.029 -0.76279,0.07871c0.26503,-0.34458 0.53446,-0.66559 0.80797,-0.96207z" fill="#000000" stroke="none" stroke-width="0" stroke-linecap="butt"/><path d="M316.07507,153.38064l3.66667,1.33334l-10,0.66666" fill="none" stroke="none" stroke-width="0" stroke-linecap="round"/><path d="M309.21794,148.06723c0,0 2.66893,9.11929 2.29337,14.0237c-0.28463,3.717 -4.35052,12.84075 -4.35052,12.84075l-36.17622,0.03399c0,0 -5.23356,0.98785 -4.77359,-0.06524c1.12203,-2.5688 6.00063,-7.56128 4.2749,-12.89236c-0.89518,-2.76537 0.18695,-7.04495 -0.64915,-10.28842c-1.04016,-4.03505 -1.22093,-7.31463 -1.98614,-11.58591c-0.82191,-4.58773 -1.35465,-12.5744 -1.89061,-16.76643c-0.86995,-6.80433 1.64649,-10.97559 1.38089,-14.21672c-0.43726,-5.33578 10.06754,-10.16555 10.06754,-10.16555l45.66667,0.06227c0,0 -2.75448,1.04876 -5.26384,3.98018c-2.01962,2.35933 -3.93956,6.43782 -5.01306,8.3542c-2.24852,4.014 -3.7231,12.65806 -3.7231,12.65806v22.29055c0,0 0.80618,6.26591 2.49965,6.62504c2.64545,0.56102 9.50035,0.46741 9.50035,0.46741c0,0 -2.57455,-1.31203 -4.69911,-4.38916c-1.76326,-2.55383 -2.96761,-6.70184 -4.3987,-8.88119c-2.36926,-3.60806 -3.16886,-11.77034 -3.16886,-11.77034" fill="#f1f1f1" stroke="#000000" stroke-width="1.5" stroke-linecap="round"/><path d="M330.87507,125.26635c0,7.06925 -2.8206,12.8 -6.3,12.8c-3.4794,0 -6.3,-5.73075 -6.3,-12.8c0,-7.06924 2.82061,-12.8 6.3,-12.8c3.4794,0 6.3,5.73076 6.3,12.8z" fill="#775100" stroke="#000000" stroke-width="1" stroke-linecap="butt"/><path d="M272.70473,84.82261c-0.43926,-0.40002 -0.86912,-0.8622 -1.28836,-1.38299c0.09202,0.06546 0.17851,0.12708 0.25868,0.18438c0,0 0.39945,0.28533 1.01844,0.51613c0.00374,0.22857 0.0075,0.45607 0.01124,0.68248z" fill="#000000" stroke="none" stroke-width="0" stroke-linecap="butt"/><path d="M272.0138,8.48583c-0.01852,0.29369 -0.03354,0.58828 -0.04519,0.88335c-0.26097,0.00201 -0.51599,0.029 -0.76279,0.07871c0.26503,-0.34459 0.53446,-0.66558 0.80797,-0.96207z" fill="#000000" stroke="none" stroke-width="0" stroke-linecap="butt"/><path d="" fill="#f1f1f1" stroke="#000000" stroke-width="1.5" stroke-linecap="butt"/><path d="M400.77805,305.49129c0.01445,0.06196 0.02895,0.12441 0.04348,0.18732c-0.01722,-0.00374 -0.03455,-0.00738 -0.05197,-0.01094c0.00258,-0.05858 0.00542,-0.11739 0.0085,-0.17638z" fill="#f1f1f1" stroke="#000000" stroke-width="1.5" stroke-linecap="butt"/><path d="" fill="#f1f1f1" stroke="#000000" stroke-width="1.5" stroke-linecap="butt"/><path d="" fill="#f1f1f1" stroke="#000000" stroke-width="1.5" stroke-linecap="butt"/><path d="" fill="#f1f1f1" stroke="#000000" stroke-width="1.5" stroke-linecap="butt"/><path d="" fill="#f1f1f1" stroke="#000000" stroke-width="1.5" stroke-linecap="butt"/><path d="" fill="#f1f1f1" stroke="#000000" stroke-width="1.5" stroke-linecap="butt"/><path d="" fill="#f1f1f1" stroke="#000000" stroke-width="1.5" stroke-linecap="butt"/><path d="" fill="#f1f1f1" stroke="#000000" stroke-width="1.5" stroke-linecap="butt"/></g></g></svg>