<svg version="1.1" xmlns="http://www.w3.org/2000/svg" xmlns:xlink="http://www.w3.org/1999/xlink" width="76.17812" height="77.90119" viewBox="0,0,76.17812,77.90119"><g transform="translate(-261.64696,-98.23483)"><g data-paper-data="{&quot;isPaintingLayer&quot;:true}" fill-rule="nonzero" stroke="#000000" stroke-linejoin="miter" stroke-miterlimit="10" stroke-dasharray="" stroke-dashoffset="0" style="mix-blend-mode: normal"><path d="M337.07507,126.88065c0,15.37193 -6.19339,27.83334 -13.83333,27.83334c-7.63994,0 -13.83333,-12.46141 -13.83333,-27.83334c0,-15.37192 6.19339,-27.83333 13.83333,-27.83333c7.63994,0 13.83333,12.4614 13.83333,27.83333z" fill="#f1f1f1" stroke-width="1.5" stroke-linecap="butt"/><path d="M309.21794,148.06724c0,0 2.66893,9.11929 2.29337,14.0237c-0.28463,3.717 -4.35052,12.84075 -4.35052,12.84075l-36.17622,0.03399c0,0 -9.0306,0.98785 -8.57063,-0.06524c1.12203,-2.5688 7.38137,-5.49017 5.65564,-10.82125c-0.27619,-0.85319 -0.44648,-1.80643 -0.09712,-2.41783c0.55017,-0.96281 -0.19291,-2.27908 0.14241,-4.22872c0.14191,-0.82511 0.16785,-5.04606 -0.00407,-5.71298c-1.04016,-4.03505 0.505,-7.31463 -0.26021,-11.58591c-0.82191,-4.58773 -1.35465,-12.5744 -1.89061,-16.76643c-0.86995,-6.80433 1.64649,-10.97559 1.38089,-14.21672c-0.43726,-5.33578 10.06754,-10.16555 10.06754,-10.16555l45.32148,0.06227c0,0 -2.40929,1.04876 -4.91865,3.98018c-2.01962,2.35933 -3.93956,6.43782 -5.01306,8.3542c-2.24852,4.014 -3.7231,12.65806 -3.7231,12.65806v22.29055c0,0 0.80618,6.26591 2.49965,6.62504c2.64545,0.56102 9.50035,0.46741 9.50035,0.46741c0,0 -2.57455,-1.31203 -4.69911,-4.38916c-1.76326,-2.55383 -2.96761,-6.70184 -4.3987,-8.88119c-2.36926,-3.60806 -3.16886,-11.77034 -3.16886,-11.77034" fill="#f1f1f1" stroke-width="1.5" stroke-linecap="round"/><path d="M330.87507,125.26636c0,7.06925 -2.8206,12.8 -6.3,12.8c-3.4794,0 -6.3,-5.73075 -6.3,-12.8c0,-7.06924 2.82061,-12.8 6.3,-12.8c3.4794,0 6.3,5.73076 6.3,12.8z" fill="#775100" stroke-width="1" stroke-linecap="butt"/></g></g></svg>